<?xml version="1.0" encoding="UTF-8"?>
<!DOCTYPE svg PUBLIC "-//W3C//DTD SVG 1.1//EN" "http://www.w3.org/Graphics/SVG/1.1/DTD/svg11.dtd">
<!-- Creator: CorelDRAW -->
<svg xmlns="http://www.w3.org/2000/svg" xml:space="preserve" width="210mm" height="297mm" version="1.1" style="shape-rendering:geometricPrecision; text-rendering:geometricPrecision; image-rendering:optimizeQuality; fill-rule:evenodd; clip-rule:evenodd"
viewBox="0 0 21000 29700"
 xmlns:xlink="http://www.w3.org/1999/xlink"
 xmlns:sodipodi="http://sodipodi.sourceforge.net/DTD/sodipodi-0.dtd"
 xmlns:inkscape="http://www.inkscape.org/namespaces/inkscape"
 inkscape:version="0.92.3 (2405546, 2018-03-11)"
 sodipodi:docname="aeromexico.svg"
 enable-background="new 0 0 595.3 648"
 xmlns:dc="http://purl.org/dc/elements/1.1/"
 xmlns:cc="http://creativecommons.org/ns#"
 xmlns:rdf="http://www.w3.org/1999/02/22-rdf-syntax-ns#"
 xmlns:svg="http://www.w3.org/2000/svg">
 <defs>
  <style type="text/css">
   <![CDATA[
    .fil3 {fill:#008AD2}
    .fil5 {fill:#1D1D1B}
    .fil0 {fill:#575756}
    .fil1 {fill:#008AD2;fill-rule:nonzero}
    .fil6 {fill:#1D1D1B;fill-rule:nonzero}
    .fil2 {fill:#69B83A;fill-rule:nonzero}
    .fil8 {fill:#6F559F;fill-rule:nonzero}
    .fil7 {fill:#D63E81;fill-rule:nonzero}
    .fil4 {fill:#F08639;fill-rule:nonzero}
   ]]>
  </style>
 </defs>
 <g id="Layer_x0020_1">
  <metadata id="CorelCorpID_0Corel-Layer"/>
  <g id="Pesona_x0020_Indonesia.cdr">
   <sodipodi:namedview pagecolor="#ffffff" bordercolor="#666666" borderopacity="1" objecttolerance="10" gridtolerance="10" guidetolerance="10" inkscape:pageopacity="0" inkscape:pageshadow="2" inkscape:window-width="1280" inkscape:window-height="1004" id="namedview198" showgrid="false" fit-margin-top="0" fit-margin-left="0" fit-margin-right="0" fit-margin-bottom="0" inkscape:zoom="8.7486948" inkscape:cx="247.11667" inkscape:cy="40.949792" inkscape:window-x="-8" inkscape:window-y="-8" inkscape:window-maximized="1" inkscape:current-layer="g3"/>
   <sodipodi:namedview id="base" pagecolor="#00ffff" bordercolor="#666666" borderopacity="1.0" inkscape:pageopacity="0" inkscape:pageshadow="2" inkscape:zoom="1.4" inkscape:cx="451.73565" inkscape:cy="-10.201303" inkscape:document-units="px" inkscape:current-layer="layer1" showgrid="false" fit-margin-left="0.3" fit-margin-top="0.3" fit-margin-right="0.3" fit-margin-bottom="0.3" units="px" inkscape:window-width="1920" inkscape:window-height="1001" inkscape:window-x="-9" inkscape:window-y="-9" inkscape:window-maximized="1"/>
   <sodipodi:namedview pagecolor="#ffffff" bordercolor="#666666" borderopacity="1" objecttolerance="10" gridtolerance="10" guidetolerance="10" inkscape:pageopacity="0" inkscape:pageshadow="2" inkscape:window-width="1280" inkscape:window-height="1004" id="namedview198" showgrid="false" fit-margin-top="0" fit-margin-left="0" fit-margin-right="0" fit-margin-bottom="0" inkscape:zoom="8.7486948" inkscape:cx="247.11667" inkscape:cy="40.949792" inkscape:window-x="-8" inkscape:window-y="-8" inkscape:window-maximized="1" inkscape:current-layer="g3"/>
   <sodipodi:namedview id="base" pagecolor="#00ffff" bordercolor="#666666" borderopacity="1.0" inkscape:pageopacity="0" inkscape:pageshadow="2" inkscape:zoom="1.4" inkscape:cx="451.73565" inkscape:cy="-10.201303" inkscape:document-units="px" inkscape:current-layer="layer1" showgrid="false" fit-margin-left="0.3" fit-margin-top="0.3" fit-margin-right="0.3" fit-margin-bottom="0.3" units="px" inkscape:window-width="1920" inkscape:window-height="1001" inkscape:window-x="-9" inkscape:window-y="-9" inkscape:window-maximized="1"/>
   <g>
    <path class="fil0" d="M7403 13956c76,0 137,84 137,187 0,103 -61,187 -137,187 -47,0 -89,-33 -114,-82l0 234 -62 0 0 -444c-5,-41 -42,-46 -94,-41 40,-76 158,-69 156,41l0 1c25,-50 67,-83 114,-83zm2112 -4l98 0c14,0 30,3 49,11 28,12 47,31 58,56 4,7 6,15 8,22 2,12 3,21 3,27l1 11c45,-9 72,-15 80,-17 18,-6 29,-15 34,-26 3,-6 5,-11 5,-16l0 -1 0 0c3,8 5,16 5,24 0,20 -11,37 -33,52 -7,4 -14,8 -22,10 -7,2 -16,4 -27,6 -15,2 -29,5 -42,7l0 12 0 118c0,12 2,24 6,36 2,5 6,10 10,15 6,5 13,7 19,7l19 0 1 0 0 22 -1 0 -66 0c-26,0 -44,-13 -54,-40 -2,-5 -4,-11 -6,-20l0 -5 0 0c-43,42 -86,63 -131,63 -16,0 -33,-3 -49,-9 -6,-3 -11,-6 -17,-11 -22,-17 -33,-37 -33,-60l0 -2c0,-17 6,-35 18,-54 10,-15 24,-28 42,-40 11,-8 24,-15 37,-21 16,-8 36,-15 59,-22 18,-5 31,-7 39,-7 10,-2 21,-4 33,-6l0 -29c0,-13 -3,-28 -9,-44 -3,-5 -6,-10 -10,-16 -5,-7 -12,-12 -20,-14 -2,-1 -10,-2 -22,-2l-82 -2 -1 -1 0 -34 1 0zm-1 272l0 1c0,13 5,27 14,40 9,10 21,16 36,16l0 0c12,0 25,-4 38,-11l56 -41 0 -100c-24,5 -44,10 -63,16 -22,7 -38,14 -47,21 -9,7 -17,15 -22,23 -8,11 -12,23 -12,35zm-360 -270l7 0c38,0 70,13 98,40 27,30 40,63 40,101l0 134c0,38 8,60 23,67 0,2 5,3 16,5l44 0 1 1 0 20 -1 1 -103 0c-28,0 -46,-20 -55,-60 -1,-5 -2,-10 -2,-15l0 -143c0,-48 -17,-78 -51,-92 -14,-5 -29,-8 -45,-8 -28,1 -56,15 -84,42 -10,12 -15,24 -15,37l0 239 -1 1 -75 0 -2 -1 0 -281c0,-24 -10,-40 -29,-48l-15 -3 -35 0 -1 -1 0 -31 1 -2 94 0c24,0 42,13 55,39l4 12c41,-35 84,-53 131,-54zm-549 -2c97,0 176,82 176,184 0,103 -79,185 -176,185 -98,0 -177,-82 -177,-185 0,-102 79,-184 177,-184zm0 41c59,0 107,65 107,144 0,80 -48,145 -107,145 -60,0 -108,-65 -108,-145 0,-79 48,-144 108,-144zm-336 50c-18,-86 -157,-78 -122,21 8,24 38,41 66,56 13,7 26,14 38,22 8,6 16,13 24,20 32,30 42,72 24,114 -39,88 -210,61 -220,-9l19 -6c46,47 191,42 151,-38 -6,-12 -18,-22 -32,-32 -9,-7 -21,-13 -32,-19 -38,-21 -78,-43 -94,-89 -55,-161 202,-179 208,-41l-30 1zm-293 79l-214 0c-8,142 86,182 217,136 4,49 -60,66 -113,67 -76,2 -125,-26 -153,-71 -51,-81 -58,-222 30,-281 92,-61 247,-25 233,149zm-63 -47c-9,-113 -153,-94 -152,0l152 0zm-518 -71c52,0 94,61 94,137 0,76 -42,138 -94,138 -52,0 -94,-62 -94,-138 0,-76 42,-137 94,-137z"/>
    <path class="fil1" d="M13145 16177c0,0 -663,12 -719,-767 83,299 340,407 343,408l81 32 -66 -56c-181,-155 -282,-335 -284,-522 -4,-182 -50,-266 -23,-348 16,-52 16,-101 24,-172 1,-14 2,-27 3,-41l2 -17 -131 -123 -138 140 -3 9c-210,516 -750,477 -750,477 0,0 274,169 720,-158 47,102 19,205 20,344 0,0 -41,960 921,794z"/>
    <path class="fil2" d="M13163 14119c-71,0 -169,28 -169,28 -475,118 -475,620 -475,620 0,0 -16,403 398,534 0,0 235,61 395,-60 -283,124 -496,-56 -496,-56 209,91 339,81 386,60 47,-21 52,-65 32,-86 -20,-22 -62,-4 -51,22 10,26 40,12 40,12 0,0 -19,48 -109,42 -369,-28 -447,-243 -447,-243 100,145 318,174 318,174 -198,-68 -381,-294 -292,-574 96,-305 416,-287 416,-287 197,7 169,201 169,201 0,0 41,-69 5,-155 -36,-85 -160,-161 -411,-49 139,-117 332,-100 404,-65 215,107 68,279 68,279 0,0 77,-14 105,-130 27,-114 -59,-267 -286,-267z"/>
    <path class="fil3" d="M11887 14686c259,-59 417,-279 417,-279 143,-193 140,-491 140,-491 0,0 127,448 -249,697 0,0 -113,76 -265,137 -158,64 -214,5 -214,5 0,0 30,11 38,-16 7,-27 -36,-40 -53,-17 -17,23 -13,58 42,76 49,16 108,3 154,-7 46,-10 176,-67 215,-93 -141,152 -415,159 -483,149 239,36 387,29 595,-80 320,-167 347,-403 347,-403 73,-553 -101,-688 -129,-687 146,-4 120,-173 120,-173l-26 38c-26,40 -55,56 -98,56 -27,0 -57,-6 -89,-13 -19,-5 -38,-9 -59,-12l-10 -2c-38,-7 -73,-13 -111,-10 -35,3 -69,17 -102,40 -27,19 -72,72 -74,74l-55 66c267,-214 380,-51 380,-51 187,236 56,763 -431,996z"/>
    <path class="fil4" d="M12361 14658c-54,-363 -329,-771 -917,-771 -375,0 -569,252 -639,366 -74,122 -140,290 -121,350 8,28 26,39 41,41 4,2 12,2 18,2 25,-2 48,-29 46,-52 -1,-22 -24,-39 -49,-36 -12,1 -28,3 -31,13 113,-472 591,-557 591,-557 -415,150 -419,475 -419,475 300,-627 862,-393 1009,-306 0,0 313,158 334,584 9,175 -39,608 -450,764 0,0 702,-38 587,-873z"/>
    <g>
     <path class="fil5" d="M11234 15122l2 0c0,23 -2,81 79,81l88 0 0 -54 -13 0c-50,0 -56,-51 -56,-116l0 -78c17,-3 34,-6 54,-10 14,-2 25,-4 33,-6 11,-4 20,-8 28,-15 28,-19 42,-41 42,-67 0,-10 -2,-20 -6,-30l-1 0 0 1c0,6 -1,13 -5,20 -7,15 -21,27 -43,34 -10,3 -44,10 -102,22l0 -14c0,-8 -2,-20 -5,-35 -3,-10 -23,-110 -146,-110l-124 0 0 44 99 0c72,0 78,86 78,103l0 32c-119,20 -140,26 -161,34 -18,6 -123,57 -123,149l0 2c0,30 14,62 41,83 7,6 34,26 84,26l11 0c0,0 128,5 146,-96zm2 -45l0 0c0,0 -39,73 -114,75 -19,1 -35,-6 -46,-20 -12,-17 -17,-32 -17,-50l0 -1c0,-90 147,-106 177,-112l0 108z"/>
     <path class="fil6" d="M10171 15154c-31,12 -54,13 -76,13 -65,0 -115,-25 -150,-77 -21,-33 -37,-70 -37,-110 0,-33 16,-44 48,-44l170 0c44,0 74,-26 74,-63 0,-68 -71,-143 -186,-143 -142,0 -217,85 -217,244 0,163 95,244 253,244 47,0 91,-9 136,-26 21,-8 13,-27 13,-27 0,0 -6,-18 -28,-11zm-129 -264l0 0 -125 0c6,-56 27,-118 94,-118 50,0 85,48 85,91 0,15 -4,27 -54,27z"/>
     <path class="fil5" d="M9679 15054l0 -127c0,-50 -18,-94 -52,-132 -35,-36 -77,-54 -125,-54l-10 0c-59,1 -115,24 -167,71l-5 -17c-17,-34 -41,-50 -71,-50l-122 0 0 44 46 0c0,0 57,0 57,66l0 348 100 0 0 -292c0,-16 6,-31 19,-48 35,-35 71,-53 108,-54 20,0 39,3 57,9 44,19 66,59 66,121l0 166c0,8 -3,98 73,98l133 0 0 -54 -57 0c-42,0 -50,-46 -50,-95z"/>
     <path class="fil5" d="M8895 15160l0 0c-24,0 -46,-9 -67,-27 -41,-40 -61,-93 -61,-158 0,-38 8,-73 23,-105 27,-54 62,-80 105,-81l0 0c27,1 53,14 78,40 32,41 47,88 48,138l0 15c-1,29 -7,60 -20,93 -28,57 -64,85 -106,85zm1 57l0 0c62,-2 117,-25 165,-72 47,-50 70,-107 70,-171 0,-59 -20,-113 -61,-163 -64,-67 -128,-80 -181,-80 -53,0 -105,18 -150,54 -60,52 -89,114 -89,186l0 6c0,51 17,99 50,145 52,63 116,95 190,95l6 0z"/>
     <path class="fil5" d="M8607 15148c-62,0 -56,-50 -56,-114 0,0 0,-378 0,-381 1,-43 0,-142 -78,-142l-119 0 0 44 47 0c5,0 53,-6 53,93l0 152c0,0 -55,-69 -154,-69l-17 0c-44,0 -87,16 -129,48 -60,49 -90,121 -89,194l0 21c-1,68 22,124 65,167 41,38 99,57 174,57 0,0 107,8 149,-96l1 0c0,23 -1,79 79,79l123 0 0 -53 -49 0zm-288 17l0 0c-27,0 -50,-5 -70,-16 -50,-26 -75,-80 -74,-160l0 -29c-1,-20 3,-52 10,-76 24,-67 68,-101 131,-101l11 0c30,0 59,12 87,37 23,24 37,44 40,57l0 175c-36,124 -135,113 -135,113z"/>
     <path class="fil5" d="M7949 15054l0 -127c0,-50 -18,-94 -52,-132 -35,-36 -77,-54 -125,-54l-10 0c-59,1 -115,24 -167,71l-5 -17c-17,-34 -40,-50 -71,-50l-122 0 0 44 46 0c0,0 57,0 57,66l0 348 99 0 0 -292c0,-16 7,-31 20,-48 35,-35 72,-53 108,-54 20,0 39,3 57,9 44,19 66,59 66,121l0 166c0,8 -3,98 74,98l132 0 0 -54 -57 0c-42,0 -50,-46 -50,-95z"/>
     <path class="fil5" d="M7135 14745l120 0c79,0 78,79 78,105l0 218c0,87 56,81 56,81l49 0 0 54 -123 0c-80,0 -79,-89 -79,-105l0 -243c0,-67 -49,-66 -53,-66l-48 0 0 -44z"/>
     <path class="fil5" d="M10609 14745l120 0c79,0 78,79 78,105l0 218c0,87 55,81 55,81l50 0 0 54 -123 0c-80,0 -79,-89 -79,-105l0 -243c0,-67 -49,-66 -54,-66l-47 0 0 -44z"/>
     <path class="fil6" d="M10541 14778l0 52 -45 0c0,0 4,-73 -61,-73 -55,0 -89,32 -89,78 0,30 28,57 83,91 81,49 143,77 143,160 0,0 7,132 -153,132 -47,0 -91,-9 -136,-26 -22,-8 -14,-27 -14,-27 0,0 6,-18 29,-11 0,0 193,66 197,-38 2,-61 -60,-82 -135,-126 -63,-38 -92,-72 -92,-122 0,-81 65,-138 158,-138 38,0 73,4 115,24l0 76 0 -52z"/>
    </g>
    <path class="fil7" d="M13304 13887c-588,0 -862,408 -916,771 -116,835 587,873 587,873 -412,-156 -460,-589 -451,-764 21,-426 334,-584 334,-584 0,0 175,-120 460,-114 290,6 402,197 402,197 103,160 -56,192 -56,192 -88,18 -103,-99 -103,-99 0,22 17,39 38,39 21,0 38,-17 38,-39 0,-21 -19,-42 -42,-42 0,0 -61,-2 -67,72 -10,125 129,176 237,116 95,-53 114,-135 97,-249 0,0 -42,-369 -558,-369z"/>
    <path class="fil8" d="M12177 13673c-155,9 -221,113 -221,113 93,-73 154,-25 154,-25 -81,-7 -105,69 -105,69 0,0 68,-31 121,-19 0,0 66,8 57,91 0,0 -9,92 -75,176 -36,45 -84,93 -158,105 -117,20 -332,-115 -550,-64 0,0 -79,17 -146,59 -58,37 -101,96 -124,183 0,0 29,-88 135,-156 35,-22 79,-43 133,-57 0,0 -168,64 -205,196 -19,67 -13,166 72,230 35,26 84,32 107,32 29,0 110,-11 134,-71 22,-55 -14,-91 -30,-98 0,0 -38,-18 -60,18 -6,10 -6,25 -1,35 5,8 12,14 22,17 7,3 16,2 22,-1 0,0 -25,18 -56,13 -32,-5 -69,-41 -64,-103 5,-56 59,-99 59,-99 0,0 89,-81 258,-14 58,23 147,52 278,53 103,0 182,-46 182,-46 75,-48 118,-112 118,-112 70,-103 102,-228 102,-228 45,-174 -43,-304 -159,-297zm-153 626l0 0c-5,2 -13,5 -24,9 -5,1 -11,3 -17,4 -7,2 -14,4 -21,5 -15,3 -32,4 -51,5 -19,0 -40,-1 -61,-3 -22,-3 -44,-7 -67,-12 -23,-5 -46,-12 -70,-19 -23,-7 -47,-15 -70,-22 -24,-7 -47,-14 -70,-19 -24,-4 -47,-6 -69,-5 -22,2 -44,5 -63,12 -19,7 -36,16 -51,27 -30,20 -49,44 -62,61 -7,9 -11,16 -14,21 -3,5 -5,8 -5,8 0,0 1,-3 3,-9 2,-5 6,-13 11,-23 5,-10 12,-21 22,-33 9,-13 21,-25 36,-38 15,-12 33,-23 53,-32 21,-8 44,-14 68,-15 25,-2 50,-1 75,4 24,5 48,13 72,20 24,8 47,16 70,24 24,7 46,14 68,21 45,12 87,20 124,21 18,1 35,0 50,-1 7,-1 14,-2 21,-3 6,-1 12,-2 17,-3 11,-3 19,-4 25,-6 5,-2 8,-3 8,-3 0,0 -3,1 -8,4z"/>
   </g>
  </g>
 </g>
</svg>
